<?xml version="1.0" encoding="UTF-8"?>
<!--Generator: Apple Native CoreSVG 232.5-->
<!DOCTYPE svg
PUBLIC "-//W3C//DTD SVG 1.1//EN"
       "http://www.w3.org/Graphics/SVG/1.1/DTD/svg11.dtd">
<svg version="1.1" xmlns="http://www.w3.org/2000/svg" xmlns:xlink="http://www.w3.org/1999/xlink" width="22.1804" height="19.9316">
 <g>
  <rect height="19.9316" opacity="0" width="22.1804" x="0" y="0"/>
  <path d="M11.8568 19.9219C17.2962 19.9219 21.8177 15.4004 21.8177 9.96094C21.8177 4.51172 17.2962 0 11.8568 0C6.40757 0 1.89585 4.50195 1.89585 9.95117L3.55601 9.95117C3.55601 5.3418 7.24741 1.66992 11.8568 1.66992C16.4662 1.66992 20.1576 5.35156 20.1576 9.96094C20.1576 14.5703 16.4662 18.2812 11.8568 18.2617C9.07358 18.252 6.63218 16.9043 5.13804 14.8242C4.8353 14.4238 4.37632 14.2969 3.96616 14.541C3.57554 14.7852 3.46811 15.3223 3.80015 15.752C5.65561 18.2422 8.56577 19.9219 11.8568 19.9219ZM0.694677 8.07617C-0.00844799 8.07617-0.184229 8.55469 0.19663 9.10156L2.38413 12.207C2.7064 12.6562 3.17515 12.6465 3.48765 12.207L5.67515 9.0918C6.04624 8.55469 5.87046 8.07617 5.1771 8.07617Z" fill="#ffffff" fill-opacity="0.85"/>
  <path d="M11.8568 15.5371C12.1205 15.5371 12.3158 15.3516 12.3158 15.0781L12.3158 14.3945C13.8294 14.248 15.0111 13.3691 15.0111 11.8945C15.0111 10.5664 14.1419 9.76562 12.4525 9.46289L12.3158 9.43359L12.3158 6.70898C13.0091 6.83594 13.4974 7.25586 13.6927 7.91016C13.8001 8.20312 13.9759 8.38867 14.2982 8.38867C14.6302 8.38867 14.8646 8.1543 14.8646 7.8125C14.8646 7.71484 14.8451 7.61719 14.8255 7.50977C14.5619 6.45508 13.5658 5.73242 12.3158 5.58594L12.3158 4.91211C12.3158 4.63867 12.1205 4.45312 11.8568 4.45312C11.5833 4.45312 11.388 4.63867 11.388 4.91211L11.388 5.58594C9.91343 5.75195 8.85874 6.67969 8.85874 8.00781C8.85874 9.24805 9.69858 9.99023 11.3197 10.3711L11.388 10.3906L11.388 13.2812C10.5091 13.1543 10.0013 12.666 9.8353 12.0117C9.72788 11.6797 9.5228 11.5234 9.2396 11.5234C8.90757 11.5234 8.67319 11.7578 8.67319 12.0996C8.67319 12.207 8.69272 12.3047 8.71226 12.4023C8.99546 13.5254 10.0892 14.248 11.388 14.375L11.388 15.0781C11.388 15.3516 11.5931 15.5371 11.8568 15.5371ZM11.388 9.18945L11.3197 9.16992C10.4505 8.91602 10.0599 8.52539 10.0599 7.94922C10.0599 7.35352 10.5677 6.85547 11.388 6.70898ZM12.3158 10.625L12.5306 10.6738C13.4681 10.9375 13.8001 11.3379 13.8001 11.9629C13.8001 12.6465 13.3119 13.1641 12.3158 13.2812Z" fill="#ffffff" fill-opacity="0.85"/>
 </g>
</svg>
